<?xml version="1.0" encoding="UTF-8" standalone="no"?>
<svg
   xmlns:dc="http://purl.org/dc/elements/1.1/"
   xmlns:cc="http://creativecommons.org/ns#"
   xmlns:rdf="http://www.w3.org/1999/02/22-rdf-syntax-ns#"
   xmlns:svg="http://www.w3.org/2000/svg"
   xmlns="http://www.w3.org/2000/svg"
   viewBox="0 0 1088.7133 204.724"
   height="204.724"
   width="1088.7133"
   xml:space="preserve"
   id="DataMe-brand"
   version="1.1"><metadata
     id="metadata8"><rdf:RDF><cc:Work
         rdf:about=""><dc:format>image/svg+xml</dc:format><dc:type
           rdf:resource="http://purl.org/dc/dcmitype/StillImage" /></cc:Work></rdf:RDF></metadata><defs
     id="defs6"><clipPath
       id="clipPath18"
       clipPathUnits="userSpaceOnUse"><path
         id="path16"
         d="M 0,153.543 H 816.535 V 0 H 0 Z" /></clipPath></defs><g
     transform="matrix(1.3333333,0,0,-1.3333333,0,204.724)"
     id="g10"><g
       id="g12"><g
         clip-path="url(#clipPath18)"
         id="g14"><text
           id="text24"
           style="font-variant:normal;font-weight:bold;font-stretch:normal;font-size:186.15260315px;font-family:Sansation;-inkscape-font-specification:Sansation-Bold;writing-mode:lr-tb;fill:#00878d;fill-opacity:1;fill-rule:nonzero;stroke:none"
           transform="matrix(1,0,0,-1,181.5063,9.75)"><tspan
             id="tspan20"
             y="0"
             x="0 128.35222 213.33089">ATA</tspan><tspan
             id="tspan22"
             y="0"
             x="355.36533 518.99347">ME</tspan></text>
<g
           transform="translate(31.1959,129.2816)"
           id="g26"><path
             id="path28"
             style="fill:#005977;fill-opacity:1;fill-rule:nonzero;stroke:none"
             d="m 0,0 c 0,5.51 -4.467,9.977 -9.977,9.977 -5.51,0 -9.976,-4.467 -9.976,-9.977 0,-5.51 4.466,-9.977 9.976,-9.977 C -4.467,-9.977 0,-5.51 0,0" /></g><g
           transform="translate(55.5491,129.2816)"
           id="g30"><path
             id="path32"
             style="fill:#005977;fill-opacity:1;fill-rule:nonzero;stroke:none"
             d="m 0,0 c 0,5.51 -4.467,9.977 -9.977,9.977 -5.51,0 -9.976,-4.467 -9.976,-9.977 0,-5.51 4.466,-9.977 9.976,-9.977 C -4.467,-9.977 0,-5.51 0,0" /></g><g
           transform="translate(31.1959,46.7546)"
           id="g34"><path
             id="path36"
             style="fill:#005977;fill-opacity:1;fill-rule:nonzero;stroke:none"
             d="m 0,0 c 0,5.51 -4.467,9.977 -9.977,9.977 -5.51,0 -9.976,-4.467 -9.976,-9.977 0,-5.51 4.466,-9.977 9.976,-9.977 C -4.467,-9.977 0,-5.51 0,0" /></g><g
           transform="translate(55.5491,46.7546)"
           id="g38"><path
             id="path40"
             style="fill:#005977;fill-opacity:1;fill-rule:nonzero;stroke:none"
             d="m 0,0 c 0,5.51 -4.467,9.977 -9.977,9.977 -5.51,0 -9.976,-4.467 -9.976,-9.977 0,-5.51 4.466,-9.977 9.976,-9.977 C -4.467,-9.977 0,-5.51 0,0" /></g><g
           transform="translate(55.5491,19.6335)"
           id="g42"><path
             id="path44"
             style="fill:#005977;fill-opacity:1;fill-rule:nonzero;stroke:none"
             d="m 0,0 c 0,5.51 -4.467,9.977 -9.977,9.977 -5.51,0 -9.976,-4.467 -9.976,-9.977 0,-5.51 4.466,-9.977 9.976,-9.977 C -4.467,-9.977 0,-5.51 0,0" /></g><g
           transform="translate(55.9373,101.54)"
           id="g46"><path
             id="path48"
             style="fill:#005977;fill-opacity:1;fill-rule:nonzero;stroke:none"
             d="m 0,0 c 0,5.51 -4.467,9.977 -9.977,9.977 -5.51,0 -9.976,-4.467 -9.976,-9.977 0,-5.51 4.466,-9.977 9.976,-9.977 C -4.467,-9.977 0,-5.51 0,0" /></g><g
           transform="translate(120.5717,30.161)"
           id="g50"><path
             id="path52"
             style="fill:#005977;fill-opacity:1;fill-rule:nonzero;stroke:none"
             d="M 0,0 H -26.814 V 88.168 H 0 c 26.964,0 40.448,-13.513 40.448,-40.539 C 40.448,15.876 26.964,0 0,0 m 0,109.074 h -50.334 c -0.079,0.002 -0.153,0.023 -0.233,0.023 -0.079,0 -0.153,-0.021 -0.233,-0.023 h -0.101 v -0.01 c -5.351,-0.181 -9.642,-4.548 -9.642,-9.943 0,-0.067 0.018,-0.128 0.019,-0.194 -10e-4,-0.066 -0.019,-0.128 -0.019,-0.194 0,-5.396 4.291,-9.763 9.642,-9.943 v -7.895 c -5.166,-0.376 -9.254,-4.641 -9.254,-9.904 0,-5.262 4.088,-9.527 9.254,-9.904 v -7.429 c -5.351,-0.181 -9.642,-4.548 -9.642,-9.943 0,-5.396 4.291,-9.763 9.642,-9.943 v -7.623 c -5.351,-0.181 -9.642,-4.548 -9.642,-9.943 0,-5.396 4.291,-9.763 9.642,-9.943 v -7.235 c -5.351,-0.181 -9.642,-4.548 -9.642,-9.943 0,-5.396 4.291,-9.763 9.642,-9.943 v -0.048 H 0 c 43.024,0 64.535,22.845 64.535,68.535 0,40.963 -21.511,61.445 -64.535,61.445" /></g></g></g></g></svg>