<?xml version="1.0" encoding="UTF-8" standalone="no"?>
<svg
   xmlns:dc="http://purl.org/dc/elements/1.1/"
   xmlns:cc="http://creativecommons.org/ns#"
   xmlns:rdf="http://www.w3.org/1999/02/22-rdf-syntax-ns#"
   xmlns:svg="http://www.w3.org/2000/svg"
   xmlns="http://www.w3.org/2000/svg"
   viewBox="0 0 302.36267 302.36267"
   height="302.36267"
   width="302.36267"
   xml:space="preserve"
   id="svg2"
   version="1.1"><metadata
     id="metadata8"><rdf:RDF><cc:Work
         rdf:about=""><dc:format>image/svg+xml</dc:format><dc:type
           rdf:resource="http://purl.org/dc/dcmitype/StillImage" /></cc:Work></rdf:RDF></metadata><defs
     id="defs6"><clipPath
       id="clipPath18"
       clipPathUnits="userSpaceOnUse"><path
         id="path16"
         d="M 0,226.772 H 226.772 V 0 H 0 Z" /></clipPath></defs><g
     transform="matrix(1.3333333,0,0,-1.3333333,0,302.36267)"
     id="g10"><g
       id="g12"><g
         clip-path="url(#clipPath18)"
         id="g14"><g
           transform="translate(225.7421,113.5635)"
           id="g20"><path
             id="path22"
             style="fill:#00526c;fill-opacity:1;fill-rule:nonzero;stroke:none"
             d="m 0,0 c 0,-62.053 -50.304,-112.356 -112.356,-112.356 -62.053,0 -112.356,50.303 -112.356,112.356 0,62.053 50.303,112.356 112.356,112.356 C -50.304,112.356 0,62.053 0,0" /></g><g
           transform="translate(52.4924,163.589)"
           id="g24"><path
             id="path26"
             style="fill:#ffffff;fill-opacity:1;fill-rule:nonzero;stroke:none"
             d="m 0,0 c 0,5.009 -4.061,9.07 -9.07,9.07 -5.01,0 -9.07,-4.061 -9.07,-9.07 0,-5.009 4.06,-9.07 9.07,-9.07 C -4.061,-9.07 0,-5.009 0,0" /></g><g
           transform="translate(74.633,163.589)"
           id="g28"><path
             id="path30"
             style="fill:#ffffff;fill-opacity:1;fill-rule:nonzero;stroke:none"
             d="m 0,0 c 0,5.009 -4.061,9.07 -9.07,9.07 -5.01,0 -9.07,-4.061 -9.07,-9.07 0,-5.009 4.06,-9.07 9.07,-9.07 C -4.061,-9.07 0,-5.009 0,0" /></g><g
           transform="translate(52.4924,88.5601)"
           id="g32"><path
             id="path34"
             style="fill:#ffffff;fill-opacity:1;fill-rule:nonzero;stroke:none"
             d="m 0,0 c 0,5.009 -4.061,9.07 -9.07,9.07 -5.01,0 -9.07,-4.061 -9.07,-9.07 0,-5.009 4.06,-9.07 9.07,-9.07 C -4.061,-9.07 0,-5.009 0,0" /></g><g
           transform="translate(74.633,88.5601)"
           id="g36"><path
             id="path38"
             style="fill:#ffffff;fill-opacity:1;fill-rule:nonzero;stroke:none"
             d="m 0,0 c 0,5.009 -4.061,9.07 -9.07,9.07 -5.01,0 -9.07,-4.061 -9.07,-9.07 0,-5.009 4.06,-9.07 9.07,-9.07 C -4.061,-9.07 0,-5.009 0,0" /></g><g
           transform="translate(74.633,63.9031)"
           id="g40"><path
             id="path42"
             style="fill:#ffffff;fill-opacity:1;fill-rule:nonzero;stroke:none"
             d="m 0,0 c 0,5.009 -4.061,9.07 -9.07,9.07 -5.01,0 -9.07,-4.061 -9.07,-9.07 0,-5.009 4.06,-9.07 9.07,-9.07 C -4.061,-9.07 0,-5.009 0,0" /></g><g
           transform="translate(74.9859,138.3679)"
           id="g44"><path
             id="path46"
             style="fill:#ffffff;fill-opacity:1;fill-rule:nonzero;stroke:none"
             d="m 0,0 c 0,5.009 -4.061,9.07 -9.07,9.07 -5.01,0 -9.07,-4.061 -9.07,-9.07 0,-5.009 4.06,-9.07 9.07,-9.07 C -4.061,-9.07 0,-5.009 0,0" /></g><g
           transform="translate(133.7479,73.4742)"
           id="g48"><path
             id="path50"
             style="fill:#ffffff;fill-opacity:1;fill-rule:nonzero;stroke:none"
             d="M 0,0 H -24.378 V 80.157 H 0 c 24.514,0 36.773,-12.285 36.773,-36.855 C 36.773,14.434 24.514,0 0,0 m 0,99.164 h -45.761 c -0.072,0.001 -0.139,0.021 -0.211,0.021 -0.073,0 -0.14,-0.02 -0.212,-0.021 h -0.092 v -0.01 c -4.865,-0.164 -8.767,-4.134 -8.767,-9.039 0,-0.061 0.017,-0.116 0.018,-0.176 -0.001,-0.06 -0.018,-0.116 -0.018,-0.177 0,-4.905 3.902,-8.875 8.767,-9.039 v -7.178 c -4.697,-0.342 -8.414,-4.22 -8.414,-9.004 0,-4.784 3.717,-8.662 8.414,-9.004 v -6.754 c -4.865,-0.165 -8.767,-4.135 -8.767,-9.04 0,-4.905 3.902,-8.876 8.767,-9.04 v -6.93 c -4.865,-0.164 -8.767,-4.134 -8.767,-9.04 0,-4.905 3.902,-8.875 8.767,-9.039 v -6.578 c -4.865,-0.164 -8.767,-4.134 -8.767,-9.04 0,-4.905 3.902,-8.875 8.767,-9.039 v -0.043 H 0 c 39.115,0 58.672,20.769 58.672,62.308 0,37.241 -19.557,55.862 -58.672,55.862" /></g></g></g></g></svg>